<svg id="svg" version="1.1" xmlns="http://www.w3.org/2000/svg" xmlns:xlink="http://www.w3.org/1999/xlink" width="400" height="225" viewBox="0, 0, 400,225"><g id="svgg"><path id="path0" d="M21.159 13.153 C 21.033 13.717,19.076 23.678,18.116 28.646 C 17.762 30.479,17.249 33.104,16.976 34.479 C 16.703 35.854,16.430 37.260,16.370 37.604 C 16.310 37.948,16.032 39.353,15.752 40.726 C 15.145 43.712,15.069 43.542,16.995 43.542 C 18.500 43.542,18.546 43.557,18.442 44.010 C 18.314 44.571,17.145 50.351,16.136 55.417 C 15.736 57.422,15.362 59.273,15.305 59.531 C 15.208 59.967,15.271 60.000,16.200 60.000 L 17.200 60.000 16.856 62.344 C 15.674 70.400,13.884 82.355,13.541 84.479 C 13.319 85.854,13.075 87.542,12.999 88.229 C 12.873 89.367,12.522 90.514,12.506 89.839 C 12.503 89.693,11.741 85.427,10.813 80.360 C 8.799 69.362,9.155 71.313,7.899 64.375 C 7.329 61.224,6.805 58.505,6.734 58.333 C 6.621 58.058,6.294 59.522,5.929 61.939 C 5.863 62.376,5.678 63.454,5.518 64.335 C 5.358 65.216,5.087 66.705,4.917 67.644 C 4.747 68.583,4.550 69.754,4.481 70.248 C 4.411 70.742,4.315 71.286,4.268 71.458 C 4.221 71.630,3.241 77.180,2.091 83.790 L -0.000 95.810 -0.000 160.405 L 0.000 225.000 200.002 225.000 L 400.003 225.000 399.945 169.635 C 399.891 118.921,399.857 114.131,399.540 112.604 C 399.349 111.688,399.137 110.609,399.068 110.208 C 399.000 109.807,398.577 107.464,398.130 105.000 C 397.682 102.536,397.260 100.193,397.192 99.792 C 396.882 97.972,394.979 87.347,394.889 86.937 C 394.795 86.507,394.871 86.474,396.092 86.416 C 396.809 86.382,397.383 86.260,397.367 86.146 C 397.352 86.031,395.711 78.836,393.722 70.157 C 390.562 56.374,389.792 53.342,389.792 54.687 C 389.792 54.859,388.802 59.710,387.592 65.468 C 383.730 83.852,383.516 84.882,383.396 85.677 L 383.278 86.458 384.893 86.458 C 386.456 86.458,386.504 86.473,386.410 86.927 C 386.071 88.574,383.484 99.495,383.416 99.566 C 383.258 99.731,383.188 99.459,382.210 94.896 C 381.669 92.375,381.144 89.938,381.042 89.479 C 380.941 89.021,380.701 87.896,380.510 86.979 C 380.318 86.063,380.039 84.750,379.889 84.063 C 379.739 83.375,379.457 82.063,379.264 81.146 C 379.070 80.229,378.777 78.870,378.612 78.125 C 378.447 77.380,378.268 76.560,378.215 76.302 C 378.121 75.855,378.177 75.833,379.454 75.833 L 380.791 75.833 380.208 73.594 C 379.517 70.939,378.345 66.496,378.209 66.014 C 378.133 65.747,378.322 65.643,379.084 65.529 C 380.944 65.250,380.868 65.557,380.074 61.563 C 379.688 59.615,379.321 57.740,379.259 57.396 C 379.197 57.052,378.686 54.427,378.122 51.563 C 377.559 48.698,376.672 44.151,376.150 41.458 C 374.714 34.045,374.765 34.266,374.578 34.601 C 374.485 34.767,374.216 35.885,373.981 37.087 C 373.746 38.288,373.419 39.880,373.255 40.625 C 373.091 41.370,372.055 46.198,370.954 51.354 C 369.853 56.510,368.719 61.780,368.434 63.065 C 367.759 66.112,367.690 65.881,369.252 65.799 C 369.986 65.761,370.559 65.776,370.525 65.833 C 370.491 65.891,370.022 67.344,369.482 69.063 C 368.942 70.781,368.228 73.031,367.896 74.063 C 367.142 76.403,367.118 76.250,368.229 76.250 C 368.747 76.250,369.167 76.348,369.167 76.469 C 369.167 76.590,368.928 78.161,368.637 79.959 C 368.346 81.758,367.829 85.003,367.488 87.171 C 367.147 89.340,366.827 91.355,366.777 91.651 C 366.727 91.946,366.484 93.453,366.237 95.000 C 365.509 99.556,364.620 104.704,364.600 104.479 C 364.589 104.365,364.493 103.755,364.386 103.125 C 363.463 97.681,362.158 89.991,361.383 85.417 C 360.869 82.380,359.681 75.396,358.744 69.896 C 357.806 64.396,356.990 59.497,356.930 59.010 C 356.823 58.139,356.458 57.755,356.458 58.514 C 356.458 58.727,355.899 62.079,355.215 65.961 C 354.532 69.844,353.918 73.349,353.851 73.750 C 353.784 74.151,353.321 76.776,352.821 79.583 C 352.321 82.391,351.858 85.037,351.791 85.464 C 351.613 86.609,351.162 89.174,350.326 93.794 C 349.918 96.053,349.583 98.092,349.583 98.325 C 349.583 100.071,349.171 97.987,348.771 94.219 C 348.506 91.727,348.222 89.359,348.139 88.958 L 347.987 88.229 347.849 88.854 C 347.773 89.198,347.193 92.573,346.561 96.354 C 345.396 103.317,345.267 103.977,345.209 103.229 C 345.192 103.000,345.135 102.578,345.084 102.292 C 342.400 87.358,341.454 82.218,341.372 82.136 C 341.247 82.011,341.129 82.504,340.441 86.042 C 337.944 98.869,336.953 103.954,336.258 107.500 C 335.820 109.734,335.149 113.186,334.767 115.171 C 334.257 117.823,334.034 118.635,333.927 118.234 C 333.790 117.722,332.305 108.281,332.225 107.411 C 332.196 107.099,332.396 106.957,333.125 106.772 C 334.234 106.490,334.244 106.957,333.025 101.979 C 332.519 99.917,331.676 96.448,331.151 94.271 C 327.075 77.382,326.793 76.250,326.673 76.250 C 326.580 76.250,321.031 103.712,320.708 105.770 C 320.617 106.350,320.686 106.479,321.239 106.765 C 321.589 106.946,321.875 107.157,321.875 107.235 C 321.875 107.313,321.594 108.927,321.251 110.823 C 320.908 112.719,320.498 115.021,320.340 115.938 C 320.008 117.862,319.933 117.761,319.480 114.792 C 319.155 112.659,317.802 104.260,317.184 100.536 C 316.754 97.950,316.686 98.125,318.125 98.125 C 319.546 98.125,319.510 98.196,319.069 96.250 C 318.900 95.505,318.205 92.318,317.524 89.167 C 316.844 86.016,315.611 80.344,314.784 76.563 C 313.958 72.781,313.191 69.219,313.080 68.646 C 312.891 67.665,312.520 66.726,312.506 67.192 C 312.496 67.532,311.658 71.456,308.238 87.188 C 307.017 92.802,305.970 97.560,305.911 97.760 C 305.821 98.073,305.952 98.125,306.829 98.125 L 307.852 98.125 307.368 101.094 C 306.164 108.487,305.812 110.610,305.714 111.070 C 305.657 111.341,305.122 114.582,304.525 118.272 C 303.929 121.963,303.385 124.916,303.317 124.835 C 303.249 124.754,302.469 120.656,301.583 115.729 C 300.698 110.802,299.566 104.521,299.068 101.771 C 298.570 99.021,298.089 96.349,298.000 95.833 C 297.910 95.318,297.826 94.849,297.812 94.792 C 297.799 94.734,297.713 94.189,297.622 93.580 C 297.532 92.972,297.406 92.524,297.344 92.587 C 297.236 92.694,296.472 98.053,295.693 104.161 L 295.335 106.967 294.966 104.890 C 294.763 103.747,294.546 102.484,294.483 102.083 C 294.379 101.421,294.104 99.859,292.386 90.208 C 292.090 88.547,291.796 86.813,291.732 86.355 C 291.376 83.811,291.336 83.956,289.808 93.333 C 289.239 96.828,288.464 101.586,288.086 103.906 C 287.708 106.227,287.341 108.125,287.271 108.125 C 287.201 108.125,286.919 107.375,286.645 106.459 C 286.009 104.336,285.995 104.343,285.327 107.135 C 284.142 112.090,281.863 121.383,281.686 121.979 C 281.565 122.386,281.493 120.743,281.480 117.260 C 281.456 111.429,281.554 112.200,279.552 102.083 C 279.200 100.307,278.874 98.620,278.827 98.333 C 278.780 98.047,278.422 96.219,278.030 94.271 C 277.639 92.323,276.978 88.948,276.562 86.771 C 275.613 81.811,275.394 80.786,275.304 80.877 C 275.264 80.916,274.710 83.430,274.071 86.464 C 273.433 89.497,272.772 92.589,272.602 93.333 C 272.432 94.078,272.019 96.000,271.684 97.604 C 271.089 100.460,270.182 104.698,269.366 108.438 C 269.141 109.469,268.875 110.758,268.776 111.302 L 268.595 112.292 269.566 112.292 L 270.537 112.292 269.285 117.310 L 268.033 122.329 267.777 120.487 C 267.636 119.475,267.042 115.130,266.456 110.833 C 265.871 106.536,265.356 102.786,265.312 102.500 C 265.269 102.214,265.132 101.236,265.009 100.327 C 264.669 97.815,264.695 97.784,263.744 101.875 C 261.861 109.973,260.658 114.960,260.639 114.743 C 260.614 114.471,258.328 100.749,258.208 100.156 L 258.092 99.583 259.477 99.583 C 260.697 99.583,260.849 99.540,260.754 99.219 C 260.600 98.694,257.800 84.544,257.158 81.042 C 257.105 80.755,256.609 78.224,256.055 75.417 C 255.502 72.609,254.985 69.951,254.907 69.510 C 254.829 69.069,254.723 68.749,254.672 68.800 C 254.588 68.884,252.977 76.859,251.569 84.167 C 250.701 88.666,248.735 98.603,248.613 99.105 C 248.508 99.537,248.578 99.567,249.843 99.625 L 251.185 99.688 249.916 106.036 C 248.690 112.175,248.642 112.347,248.479 111.244 C 247.452 104.331,245.442 92.614,245.306 92.750 C 245.256 92.800,244.696 96.397,244.061 100.743 C 243.426 105.090,242.852 109.021,242.784 109.479 C 242.717 109.938,242.358 112.375,241.987 114.896 C 241.615 117.417,241.262 119.339,241.201 119.167 C 241.102 118.885,240.355 115.694,239.689 112.708 C 237.856 104.483,236.033 97.072,235.922 97.396 C 235.862 97.571,233.995 107.530,233.657 109.479 C 233.544 110.124,232.058 118.124,230.747 125.142 C 229.792 130.248,229.743 129.792,231.250 129.792 C 232.615 129.792,232.610 129.784,232.301 131.146 C 232.197 131.604,232.051 132.401,231.977 132.917 C 231.903 133.432,231.669 134.698,231.458 135.729 C 231.247 136.760,231.013 138.026,230.938 138.542 C 230.862 139.057,230.624 140.339,230.408 141.390 C 230.192 142.441,229.959 143.707,229.890 144.203 C 229.820 144.698,229.649 145.667,229.509 146.354 L 229.255 147.604 227.492 148.075 C 226.522 148.334,224.135 148.967,222.188 149.482 C 220.240 149.997,217.052 150.840,215.104 151.356 C 211.524 152.303,210.619 152.520,204.792 153.827 C 199.306 155.057,199.270 155.062,196.146 154.926 C 194.542 154.856,191.167 154.736,188.646 154.661 L 184.063 154.523 178.534 152.688 C 173.306 150.953,172.661 150.791,166.659 149.710 C 163.168 149.081,159.844 148.436,159.271 148.276 C 158.698 148.116,155.790 147.305,152.809 146.472 L 147.389 144.959 147.010 142.531 C 146.623 140.051,145.104 130.667,144.886 129.406 C 144.708 128.382,144.617 128.642,144.268 131.163 C 144.095 132.414,143.908 133.766,143.851 134.167 C 143.712 135.159,143.383 137.724,143.008 140.729 C 142.837 142.104,142.652 143.374,142.598 143.550 C 142.508 143.843,132.563 141.591,132.158 141.185 C 132.099 141.126,131.831 139.687,131.563 137.987 C 131.100 135.050,129.722 126.425,129.504 125.100 C 129.296 123.840,128.554 119.192,128.141 116.563 C 127.137 110.166,126.243 104.652,126.138 104.201 C 126.027 103.723,126.051 103.715,127.393 103.784 L 128.761 103.854 128.640 103.229 C 128.573 102.885,128.340 101.760,128.122 100.729 C 127.903 99.698,127.201 96.323,126.561 93.229 C 125.921 90.135,125.124 86.339,124.791 84.792 C 124.458 83.245,123.760 79.917,123.240 77.396 C 122.085 71.798,122.086 71.803,121.965 71.924 C 121.911 71.978,121.501 73.794,121.054 75.959 C 120.607 78.124,119.667 82.615,118.965 85.938 C 118.262 89.260,117.172 94.464,116.543 97.500 C 115.913 100.536,115.349 103.185,115.289 103.385 C 115.192 103.712,115.358 103.750,116.861 103.750 C 117.785 103.750,118.542 103.838,118.542 103.945 C 118.542 104.053,118.411 104.733,118.251 105.456 C 118.091 106.179,117.563 108.880,117.078 111.458 C 116.593 114.036,116.132 116.217,116.054 116.304 C 115.976 116.392,115.514 114.142,115.027 111.304 C 114.540 108.467,113.963 105.161,113.745 103.958 C 113.526 102.755,113.295 101.443,113.232 101.042 C 113.168 100.641,112.981 99.563,112.815 98.646 C 112.650 97.729,112.462 96.651,112.398 96.250 C 112.334 95.849,111.944 93.618,111.532 91.292 C 110.673 86.440,110.571 86.893,112.586 86.603 C 114.007 86.398,114.145 86.337,114.061 85.949 C 113.938 85.386,113.247 81.212,112.713 77.813 C 112.479 76.323,112.240 74.893,112.181 74.635 C 112.080 74.186,112.132 74.167,113.448 74.167 C 114.656 74.167,114.807 74.123,114.712 73.802 C 114.653 73.602,114.123 71.375,113.534 68.854 C 112.945 66.333,112.041 62.490,111.526 60.313 C 111.010 58.135,110.461 55.792,110.307 55.104 C 110.152 54.417,109.493 51.604,108.843 48.854 C 108.193 46.104,107.595 43.573,107.514 43.229 C 107.301 42.330,107.298 42.345,105.841 50.104 C 105.299 52.994,105.294 53.018,104.809 55.521 C 104.587 56.667,104.027 59.573,103.565 61.979 C 103.103 64.385,102.391 68.071,101.983 70.169 C 101.135 74.527,101.102 74.301,102.607 74.489 C 103.488 74.599,103.750 74.713,103.750 74.985 C 103.750 75.293,102.516 81.088,101.567 85.238 C 101.392 85.999,101.250 86.679,101.250 86.749 C 101.250 86.818,101.672 86.875,102.188 86.875 C 103.338 86.875,103.337 86.388,102.206 92.813 C 102.146 93.156,101.862 94.797,101.576 96.458 C 101.290 98.120,100.679 101.624,100.218 104.245 C 99.757 106.866,99.327 109.397,99.263 109.870 C 98.738 113.726,98.770 113.827,97.101 102.903 C 96.254 97.353,95.518 92.695,95.466 92.552 C 95.399 92.366,95.668 92.292,96.409 92.292 L 97.446 92.292 97.260 91.302 C 97.158 90.758,97.026 90.031,96.968 89.688 C 96.910 89.344,96.585 87.656,96.246 85.938 C 95.907 84.219,94.969 79.344,94.162 75.104 C 93.354 70.865,92.517 66.505,92.301 65.417 C 92.085 64.328,91.844 63.016,91.764 62.500 C 91.495 60.752,91.244 60.654,90.963 62.188 C 90.900 62.531,90.714 63.422,90.548 64.167 C 90.000 66.636,87.472 78.414,87.195 79.792 C 87.045 80.536,86.396 83.583,85.753 86.563 C 85.110 89.542,84.584 92.039,84.584 92.112 C 84.583 92.185,84.935 92.306,85.365 92.380 C 85.794 92.454,86.388 92.562,86.684 92.620 L 87.221 92.726 86.855 94.853 C 86.653 96.022,86.007 99.792,85.419 103.229 C 84.831 106.667,83.979 111.635,83.525 114.271 C 83.071 116.906,82.543 120.047,82.351 121.250 L 82.002 123.438 81.424 119.896 C 81.106 117.948,80.843 116.284,80.840 116.198 C 80.836 116.112,81.255 116.042,81.771 116.042 C 82.916 116.042,82.966 116.820,81.336 109.215 C 80.581 105.694,79.659 101.359,79.286 99.583 C 77.118 89.263,76.132 84.793,76.022 84.792 C 75.897 84.792,75.568 86.388,73.876 95.208 C 73.360 97.901,72.276 103.526,71.469 107.709 C 69.655 117.101,69.637 116.050,71.615 116.357 C 72.675 116.522,72.678 116.062,71.587 121.146 L 70.694 125.313 70.360 123.438 C 70.176 122.406,69.974 121.188,69.909 120.729 C 69.845 120.271,69.320 116.943,68.742 113.333 C 68.165 109.724,67.646 106.443,67.590 106.042 C 67.534 105.641,67.449 105.125,67.401 104.896 C 67.353 104.667,66.840 101.479,66.262 97.813 C 64.870 88.999,64.822 88.710,64.699 88.588 C 64.561 88.449,64.464 88.781,64.164 90.417 C 64.027 91.161,63.888 91.911,63.855 92.083 C 63.628 93.248,61.480 104.150,60.838 107.396 C 59.893 112.174,60.135 112.759,58.251 101.146 C 56.613 91.042,56.667 92.185,57.813 91.897 C 58.328 91.767,58.750 91.610,58.750 91.549 C 58.750 91.487,58.413 89.730,58.000 87.645 C 57.588 85.560,57.210 83.620,57.160 83.333 C 57.110 83.047,56.654 80.703,56.146 78.125 C 54.270 68.603,53.729 65.849,53.641 65.378 C 53.591 65.113,53.400 64.099,53.217 63.125 C 52.770 60.746,52.686 60.572,52.462 61.563 C 52.245 62.515,48.753 80.605,48.018 84.583 C 47.965 84.870,47.639 86.557,47.295 88.333 C 46.526 92.296,46.526 92.292,47.188 92.292 C 47.474 92.292,47.708 92.341,47.708 92.402 C 47.708 92.707,45.555 98.125,45.434 98.125 C 45.356 98.125,44.800 94.961,44.199 91.094 C 43.597 87.227,42.643 81.109,42.079 77.500 C 41.515 73.891,40.997 70.563,40.927 70.104 C 40.858 69.646,40.058 64.490,39.151 58.646 C 38.243 52.802,37.500 47.888,37.500 47.726 C 37.499 46.891,37.195 47.947,36.861 49.941 C 36.655 51.176,36.194 53.875,35.838 55.938 C 35.253 59.321,32.062 78.239,30.680 86.514 C 30.378 88.320,30.069 89.726,29.993 89.639 C 29.917 89.551,29.549 87.417,29.175 84.896 C 28.801 82.375,28.465 80.125,28.428 79.896 C 28.391 79.667,28.070 77.510,27.714 75.104 C 27.358 72.698,26.785 68.854,26.440 66.563 C 26.095 64.271,25.767 62.068,25.713 61.667 C 25.658 61.266,25.567 60.727,25.511 60.469 C 25.413 60.020,25.467 60.000,26.767 60.000 C 27.514 60.000,28.125 59.977,28.124 59.948 C 28.123 59.919,27.380 56.240,26.473 51.772 C 25.566 47.305,24.850 43.622,24.883 43.589 C 24.916 43.556,25.619 43.634,26.446 43.762 C 28.324 44.054,28.239 44.549,27.169 39.583 C 26.664 37.234,26.117 34.656,25.954 33.854 C 25.792 33.052,24.893 28.833,23.956 24.479 C 23.020 20.125,22.080 15.732,21.868 14.716 C 21.441 12.679,21.324 12.420,21.159 13.153 " stroke="none" fill="#848484" fill-rule="evenodd"></path><path id="path1" d="M115.990 103.903 C 116.477 103.946,117.273 103.946,117.760 103.903 C 118.247 103.859,117.849 103.823,116.875 103.823 C 115.901 103.823,115.503 103.859,115.990 103.903 M126.042 103.908 C 126.042 103.995,126.487 104.037,127.031 104.002 C 128.614 103.900,128.751 103.800,127.344 103.774 C 126.628 103.761,126.042 103.821,126.042 103.908 " stroke="none" fill="#888484" fill-rule="evenodd"></path></g></svg>